<svg width="34" height="25" viewBox="0 0 34 25" fill="none" xmlns="http://www.w3.org/2000/svg">
<path d="M33.5928 12.5C33.5928 12.8684 33.4465 13.2216 33.186 13.4821C32.9255 13.7426 32.5722 13.8889 32.2038 13.8889H1.64595C1.27757 13.8889 0.924272 13.7426 0.663785 13.4821C0.403298 13.2216 0.256958 12.8684 0.256958 12.5C0.256958 12.1316 0.403298 11.7784 0.663785 11.5179C0.924272 11.2574 1.27757 11.1111 1.64595 11.1111H32.2038C32.5722 11.1111 32.9255 11.2574 33.186 11.5179C33.4465 11.7784 33.5928 12.1316 33.5928 12.5ZM1.64595 2.77778H32.2038C32.5722 2.77778 32.9255 2.63145 33.186 2.37098C33.4465 2.11051 33.5928 1.75725 33.5928 1.38889C33.5928 1.02053 33.4465 0.667264 33.186 0.406796C32.9255 0.146329 32.5722 0 32.2038 0H1.64595C1.27757 0 0.924272 0.146329 0.663785 0.406796C0.403298 0.667264 0.256958 1.02053 0.256958 1.38889C0.256958 1.75725 0.403298 2.11051 0.663785 2.37098C0.924272 2.63145 1.27757 2.77778 1.64595 2.77778ZM32.2038 22.2222H1.64595C1.27757 22.2222 0.924272 22.3685 0.663785 22.629C0.403298 22.8895 0.256958 23.2428 0.256958 23.6111C0.256958 23.9795 0.403298 24.3327 0.663785 24.5932C0.924272 24.8537 1.27757 25 1.64595 25H32.2038C32.5722 25 32.9255 24.8537 33.186 24.5932C33.4465 24.3327 33.5928 23.9795 33.5928 23.6111C33.5928 23.2428 33.4465 22.8895 33.186 22.629C32.9255 22.3685 32.5722 22.2222 32.2038 22.2222Z" fill="#FEFEFE"/>
</svg>
