<svg width="33" height="25" viewBox="0 0 33 25" fill="none" xmlns="http://www.w3.org/2000/svg">
<path d="M33 12.5C33 12.8684 32.8551 13.2216 32.5973 13.4821C32.3394 13.7426 31.9897 13.8889 31.625 13.8889H1.375C1.01033 13.8889 0.660591 13.7426 0.402728 13.4821C0.144866 13.2216 0 12.8684 0 12.5C0 12.1316 0.144866 11.7784 0.402728 11.5179C0.660591 11.2574 1.01033 11.1111 1.375 11.1111H31.625C31.9897 11.1111 32.3394 11.2574 32.5973 11.5179C32.8551 11.7784 33 12.1316 33 12.5ZM1.375 2.77778H31.625C31.9897 2.77778 32.3394 2.63145 32.5973 2.37098C32.8551 2.11051 33 1.75725 33 1.38889C33 1.02053 32.8551 0.667264 32.5973 0.406796C32.3394 0.146329 31.9897 0 31.625 0H1.375C1.01033 0 0.660591 0.146329 0.402728 0.406796C0.144866 0.667264 0 1.02053 0 1.38889C0 1.75725 0.144866 2.11051 0.402728 2.37098C0.660591 2.63145 1.01033 2.77778 1.375 2.77778ZM31.625 22.2222H1.375C1.01033 22.2222 0.660591 22.3685 0.402728 22.629C0.144866 22.8895 0 23.2428 0 23.6111C0 23.9795 0.144866 24.3327 0.402728 24.5932C0.660591 24.8537 1.01033 25 1.375 25H31.625C31.9897 25 32.3394 24.8537 32.5973 24.5932C32.8551 24.3327 33 23.9795 33 23.6111C33 23.2428 32.8551 22.8895 32.5973 22.629C32.3394 22.3685 31.9897 22.2222 31.625 22.2222Z" fill="#080808"/>
</svg>
