<svg width="30" height="29" viewBox="0 0 30 29" fill="none" xmlns="http://www.w3.org/2000/svg">
<path d="M29.6273 17.3715C29.4799 17.2252 29.2951 17.1215 29.0927 17.0714C28.8902 17.0213 28.6778 17.0267 28.4783 17.0871C26.2874 17.7429 23.9578 17.7978 21.7378 17.2462C19.5178 16.6945 17.4905 15.5567 15.8721 13.9543C14.2536 12.3518 13.1046 10.3445 12.5474 8.14645C11.9902 5.94836 12.0457 3.64177 12.708 1.47247C12.7695 1.2748 12.7754 1.06428 12.7251 0.863549C12.6747 0.662816 12.5701 0.479466 12.4224 0.333217C12.2747 0.186969 12.0895 0.083355 11.8868 0.0335195C11.684 -0.016316 11.4714 -0.0104877 11.2718 0.0503775C8.24272 0.969114 5.58348 2.81037 3.67246 5.31212C2.00124 7.50905 0.981831 10.1239 0.728775 12.8628C0.475719 15.6018 0.999038 18.3563 2.23994 20.817C3.48084 23.2777 5.39016 25.3471 7.75339 26.7926C10.1166 28.2381 12.8401 29.0025 15.6179 28.9999C18.8586 29.0098 22.0132 27.9667 24.5975 26.0306C27.1242 24.1385 28.9838 21.5055 29.9117 18.5063C29.9725 18.3094 29.9781 18.0998 29.928 17.8999C29.8779 17.7001 29.774 17.5174 29.6273 17.3715ZM23.2158 24.2132C20.7821 26.0281 17.7682 26.9116 14.7288 26.7008C11.6894 26.4901 8.82926 25.1994 6.67476 23.0664C4.52026 20.9333 3.21647 18.1015 3.00341 15.0921C2.79034 12.0828 3.68234 9.09853 5.5152 6.68871C6.70932 5.12734 8.25311 3.86166 10.0251 2.99127C9.92414 3.69268 9.87327 4.40027 9.87284 5.10876C9.87703 9.02998 11.4521 12.7894 14.2525 15.5621C17.0528 18.3349 20.8497 19.8944 24.8101 19.8985C25.5271 19.8983 26.2431 19.8479 26.953 19.7478C26.0731 21.5026 24.7938 23.0312 23.2158 24.2132Z" fill="#080808"/>
</svg>
