<svg width="30" height="29" viewBox="0 0 30 29" fill="none" xmlns="http://www.w3.org/2000/svg">
<path d="M14.3377 3.86667V0.966667C14.3377 0.710291 14.4406 0.464415 14.6237 0.28313C14.8069 0.101845 15.0553 0 15.3142 0C15.5732 0 15.8216 0.101845 16.0047 0.28313C16.1879 0.464415 16.2907 0.710291 16.2907 0.966667V3.86667C16.2907 4.12304 16.1879 4.36892 16.0047 4.5502C15.8216 4.73149 15.5732 4.83333 15.3142 4.83333C15.0553 4.83333 14.8069 4.73149 14.6237 4.5502C14.4406 4.36892 14.3377 4.12304 14.3377 3.86667ZM23.1263 14.5C23.1263 16.0295 22.6681 17.5247 21.8097 18.7964C20.9513 20.0681 19.7312 21.0594 18.3038 21.6447C16.8763 22.23 15.3056 22.3831 13.7902 22.0847C12.2748 21.7863 10.8828 21.0498 9.79029 19.9683C8.69776 18.8868 7.95373 17.5088 7.6523 16.0087C7.35087 14.5086 7.50558 12.9537 8.09685 11.5406C8.68813 10.1275 9.68942 8.91972 10.9741 8.06997C12.2588 7.22022 13.7692 6.76667 15.3142 6.76667C17.3854 6.76891 19.3711 7.58438 20.8357 9.03418C22.3002 10.484 23.124 12.4497 23.1263 14.5ZM21.1733 14.5C21.1733 13.3529 20.8296 12.2315 20.1858 11.2777C19.542 10.3239 18.627 9.58049 17.5564 9.1415C16.4858 8.70251 15.3077 8.58765 14.1712 8.81145C13.0347 9.03524 11.9907 9.58764 11.1713 10.3988C10.3519 11.2099 9.79386 12.2434 9.56779 13.3685C9.34171 14.4936 9.45774 15.6598 9.9012 16.7196C10.3447 17.7794 11.0956 18.6852 12.0591 19.3225C13.0226 19.9598 14.1554 20.3 15.3142 20.3C16.8677 20.2984 18.357 19.6868 19.4554 18.5995C20.5539 17.5121 21.1717 16.0378 21.1733 14.5ZM6.81132 7.45058C6.99455 7.63197 7.24307 7.73387 7.5022 7.73387C7.76132 7.73387 8.00984 7.63197 8.19307 7.45058C8.37631 7.2692 8.47924 7.02318 8.47924 6.76667C8.47924 6.51015 8.37631 6.26414 8.19307 6.08275L6.24006 4.14942C6.05683 3.96803 5.80831 3.86613 5.54918 3.86613C5.29005 3.86613 5.04154 3.96803 4.85831 4.14942C4.67507 4.3308 4.57214 4.57681 4.57214 4.83333C4.57214 5.08985 4.67507 5.33586 4.85831 5.51725L6.81132 7.45058ZM6.81132 21.5494L4.85831 23.4827C4.67507 23.6641 4.57214 23.9101 4.57214 24.1667C4.57214 24.4232 4.67507 24.6692 4.85831 24.8506C5.04154 25.032 5.29005 25.1339 5.54918 25.1339C5.80831 25.1339 6.05683 25.032 6.24006 24.8506L8.19307 22.9172C8.2838 22.8274 8.35577 22.7208 8.40487 22.6035C8.45397 22.4861 8.47924 22.3603 8.47924 22.2333C8.47924 22.1063 8.45397 21.9805 8.40487 21.8632C8.35577 21.7459 8.2838 21.6392 8.19307 21.5494C8.10235 21.4596 7.99464 21.3884 7.8761 21.3398C7.75755 21.2911 7.6305 21.2661 7.5022 21.2661C7.37389 21.2661 7.24684 21.2911 7.12829 21.3398C7.00975 21.3884 6.90204 21.4596 6.81132 21.5494ZM23.1263 7.73333C23.2546 7.73343 23.3816 7.70851 23.5001 7.66C23.6187 7.61148 23.7264 7.54032 23.8172 7.45058L25.7702 5.51725C25.9534 5.33586 26.0563 5.08985 26.0563 4.83333C26.0563 4.57681 25.9534 4.3308 25.7702 4.14942C25.5869 3.96803 25.3384 3.86613 25.0793 3.86613C24.8202 3.86613 24.5716 3.96803 24.3884 4.14942L22.4354 6.08275C22.2987 6.21794 22.2056 6.39025 22.1678 6.57787C22.1301 6.76549 22.1494 6.95997 22.2234 7.1367C22.2974 7.31343 22.4226 7.46445 22.5834 7.57066C22.7441 7.67687 22.933 7.73348 23.1263 7.73333ZM23.8172 21.5494C23.6339 21.368 23.3854 21.2661 23.1263 21.2661C22.8672 21.2661 22.6186 21.368 22.4354 21.5494C22.2522 21.7308 22.1492 21.9768 22.1492 22.2333C22.1492 22.4899 22.2522 22.7359 22.4354 22.9172L24.3884 24.8506C24.4791 24.9404 24.5869 25.0116 24.7054 25.0602C24.8239 25.1089 24.951 25.1339 25.0793 25.1339C25.2076 25.1339 25.3347 25.1089 25.4532 25.0602C25.5717 25.0116 25.6794 24.9404 25.7702 24.8506C25.8609 24.7608 25.9329 24.6541 25.982 24.5368C26.0311 24.4195 26.0563 24.2937 26.0563 24.1667C26.0563 24.0396 26.0311 23.9139 25.982 23.7965C25.9329 23.6792 25.8609 23.5726 25.7702 23.4827L23.8172 21.5494ZM5.54918 14.5C5.54918 14.2436 5.4463 13.9977 5.26317 13.8165C5.08004 13.6352 4.83166 13.5333 4.57268 13.5333H1.64316C1.38418 13.5333 1.1358 13.6352 0.952668 13.8165C0.769538 13.9977 0.666656 14.2436 0.666656 14.5C0.666656 14.7564 0.769538 15.0023 0.952668 15.1835C1.1358 15.3648 1.38418 15.4667 1.64316 15.4667H4.57268C4.83166 15.4667 5.08004 15.3648 5.26317 15.1835C5.4463 15.0023 5.54918 14.7564 5.54918 14.5ZM15.3142 24.1667C15.0553 24.1667 14.8069 24.2685 14.6237 24.4498C14.4406 24.6311 14.3377 24.877 14.3377 25.1333V28.0333C14.3377 28.2897 14.4406 28.5356 14.6237 28.7169C14.8069 28.8982 15.0553 29 15.3142 29C15.5732 29 15.8216 28.8982 16.0047 28.7169C16.1879 28.5356 16.2907 28.2897 16.2907 28.0333V25.1333C16.2907 24.877 16.1879 24.6311 16.0047 24.4498C15.8216 24.2685 15.5732 24.1667 15.3142 24.1667ZM28.9853 13.5333H26.0558C25.7968 13.5333 25.5484 13.6352 25.3653 13.8165C25.1822 13.9977 25.0793 14.2436 25.0793 14.5C25.0793 14.7564 25.1822 15.0023 25.3653 15.1835C25.5484 15.3648 25.7968 15.4667 26.0558 15.4667H28.9853C29.2443 15.4667 29.4927 15.3648 29.6758 15.1835C29.8589 15.0023 29.9618 14.7564 29.9618 14.5C29.9618 14.2436 29.8589 13.9977 29.6758 13.8165C29.4927 13.6352 29.2443 13.5333 28.9853 13.5333Z" fill="#FEFEFE"/>
</svg>
