<svg width="73" height="72" viewBox="0 0 73 72" fill="none" xmlns="http://www.w3.org/2000/svg">
<path d="M62.9863 9.51375C60.7398 7.26775 57.6944 6.00413 54.5178 5.99992C51.3411 5.9957 48.2924 7.25123 46.04 9.49125L41.6712 14.07C41.1125 14.5922 40.3754 14.8813 39.6106 14.8783C38.8458 14.8752 38.1111 14.5801 37.5566 14.0534C37.0021 13.5266 36.6697 12.808 36.6274 12.0444C36.585 11.2808 36.8359 10.5298 37.3288 9.945L41.7237 5.33625C41.739 5.31907 41.7553 5.3028 41.7725 5.2875C45.1574 1.95726 49.7212 0.0994658 54.4696 0.118801C59.2181 0.138136 63.7666 2.03303 67.1243 5.39073C70.482 8.74843 72.3769 13.2969 72.3962 18.0454C72.4155 22.7938 70.5577 27.3576 67.2275 30.7425C67.2122 30.7597 67.1959 30.776 67.1787 30.7913L62.57 35.1862C61.9852 35.6791 61.2342 35.93 60.4706 35.8876C59.707 35.8453 58.9884 35.5129 58.4616 34.9584C57.9349 34.4039 57.6398 33.6692 57.6367 32.9044C57.6337 32.1396 57.9228 31.4025 58.445 30.8438L63.0238 26.475C65.2664 24.22 66.5221 21.1669 66.5151 17.9866C66.508 14.8063 65.2388 11.7588 62.9863 9.51375ZM31.3288 57.93L26.96 62.5088C24.6987 64.7049 21.6641 65.9231 18.5119 65.9C15.3598 65.877 12.3433 64.6146 10.1144 62.3856C7.88541 60.1567 6.623 57.1402 6.59997 53.9881C6.57693 50.8359 7.79511 47.8013 9.99125 45.54L14.57 41.1712C15.0922 40.6125 15.3813 39.8754 15.3783 39.1106C15.3752 38.3458 15.0801 37.6111 14.5534 37.0566C14.0266 36.5021 13.308 36.1697 12.5444 36.1274C11.7808 36.085 11.0298 36.3359 10.445 36.8288L5.82125 41.2237C5.80407 41.239 5.7878 41.2553 5.7725 41.2725C2.44226 44.6574 0.584465 49.2212 0.603801 53.9696C0.623136 58.7181 2.51803 63.2666 5.87573 66.6243C9.23343 69.982 13.7819 71.8769 18.5304 71.8962C23.2788 71.9155 27.8426 70.0577 31.2275 66.7275C31.2447 66.7122 31.261 66.6959 31.2762 66.6787L35.6712 62.07C35.97 61.7907 36.2086 61.4533 36.3722 61.0785C36.5358 60.7037 36.6211 60.2994 36.6227 59.8904C36.6244 59.4814 36.5424 59.0764 36.3818 58.7003C36.2212 58.3242 35.9854 57.9849 35.6889 57.7032C35.3924 57.4215 35.0414 57.2034 34.6575 57.0624C34.2736 56.9213 33.865 56.8602 33.4566 56.8829C33.0483 56.9055 32.6489 57.0114 32.2829 57.1941C31.917 57.3767 31.5923 57.6323 31.3288 57.945V57.93ZM69.5 45H60.5C59.7043 45 58.9413 45.3161 58.3787 45.8787C57.8161 46.4413 57.5 47.2043 57.5 48C57.5 48.7957 57.8161 49.5587 58.3787 50.1213C58.9413 50.6839 59.7043 51 60.5 51H69.5C70.2956 51 71.0587 50.6839 71.6213 50.1213C72.1839 49.5587 72.5 48.7957 72.5 48C72.5 47.2043 72.1839 46.4413 71.6213 45.8787C71.0587 45.3161 70.2956 45 69.5 45ZM3.5 27H12.5C13.2956 27 14.0587 26.6839 14.6213 26.1213C15.1839 25.5587 15.5 24.7956 15.5 24C15.5 23.2044 15.1839 22.4413 14.6213 21.8787C14.0587 21.3161 13.2956 21 12.5 21H3.5C2.70435 21 1.94129 21.3161 1.37868 21.8787C0.816071 22.4413 0.5 23.2044 0.5 24C0.5 24.7956 0.816071 25.5587 1.37868 26.1213C1.94129 26.6839 2.70435 27 3.5 27ZM48.5 57C47.7043 57 46.9413 57.3161 46.3787 57.8787C45.8161 58.4413 45.5 59.2043 45.5 60V69C45.5 69.7956 45.8161 70.5587 46.3787 71.1213C46.9413 71.6839 47.7043 72 48.5 72C49.2957 72 50.0587 71.6839 50.6213 71.1213C51.1839 70.5587 51.5 69.7956 51.5 69V60C51.5 59.2043 51.1839 58.4413 50.6213 57.8787C50.0587 57.3161 49.2957 57 48.5 57ZM24.5 15C25.2956 15 26.0587 14.6839 26.6213 14.1213C27.1839 13.5587 27.5 12.7956 27.5 12V3C27.5 2.20435 27.1839 1.44129 26.6213 0.87868C26.0587 0.316071 25.2956 0 24.5 0C23.7044 0 22.9413 0.316071 22.3787 0.87868C21.8161 1.44129 21.5 2.20435 21.5 3V12C21.5 12.7956 21.8161 13.5587 22.3787 14.1213C22.9413 14.6839 23.7044 15 24.5 15Z" fill="#484848"/>
</svg>
