<svg width="313" height="295" viewBox="0 0 313 295" fill="none" xmlns="http://www.w3.org/2000/svg">
<path d="M309.472 128.541C308.297 130.306 306.702 131.891 304.912 133.086C303.002 134.316 300.967 135.171 298.847 135.581L298.407 135.651C297.827 135.756 297.337 135.811 296.917 135.831L296.862 135.851H296.792C296.352 135.886 295.897 135.906 295.462 135.906C287.607 135.906 280.872 130.451 279.417 122.946L271.072 79.8405L268.232 65.1304L261.272 78.3605L184.016 225.402L183.996 225.457L183.961 225.512C179.961 233.607 171.616 238.882 162.166 239.257C161.781 239.277 161.411 239.292 161.046 239.292C151.736 239.292 143.531 234.587 139.131 226.687L108.046 171.296L103.751 163.666L99.0507 171.046L22.1652 291.682C21.2001 293.197 19.6251 294.072 17.8151 294.072C16.0051 294.072 14.4851 293.217 13.5001 291.717C8.83506 284.622 4.50503 277.297 0.630004 269.932C0.210001 269.147 0 268.272 0 267.402C0 266.367 0.300002 265.372 0.840006 264.512L82.8456 135.886C87.4206 128.721 95.6457 124.246 104.306 124.246C104.516 124.246 104.726 124.266 104.971 124.266C113.931 124.426 122.156 129.241 126.396 136.836L156.361 190.231L161.096 198.626L165.586 190.086L232.587 62.6504L239.652 49.2103L225.872 55.2204L179.916 75.2605C177.796 76.1855 175.551 76.6505 173.216 76.6505C166.781 76.6505 160.891 73.0305 158.241 67.4355C156.436 63.6404 156.241 59.3754 157.696 55.3854C159.206 51.2654 162.431 47.8603 166.531 46.0603L267.812 1.91501L271.232 0.560004C271.497 0.490003 271.757 0.415003 272.037 0.345002L272.107 0.325002C272.177 0.305002 272.267 0.305002 272.337 0.290002H272.707L273.112 0.185001H273.237L273.587 0.130001C273.817 0.0950006 274.027 0.0750005 274.237 0.0750005L274.342 0.0550004H274.447C274.797 0.0200001 275.147 0 275.447 0H275.762C275.992 0 276.217 0.0200001 276.482 0.0350002H276.607C277.012 0.0550004 277.397 0.0700005 277.832 0.140001L277.902 0.160001H277.992C278.432 0.215001 278.937 0.305002 279.537 0.445003C280.062 0.570004 280.447 0.695005 280.832 0.800005L281.027 0.855006L281.327 0.960006C282.992 1.53001 284.517 2.37002 285.887 3.44002L285.957 3.49502L286.047 3.55002C286.432 3.83503 286.852 4.21003 287.362 4.71003C287.677 5.05003 288.012 5.38504 288.377 5.81504C288.587 6.04504 288.832 6.35004 289.097 6.72505L289.307 7.01005L289.342 7.10005L289.412 7.20505L290.727 9.52507L290.992 10.1851C291.187 10.6301 291.307 10.9701 291.432 11.3601C291.592 11.8751 291.732 12.4101 291.817 13.0201L291.837 13.1251L291.857 13.2151L291.877 13.2851L311.902 116.791C312.672 120.891 311.832 125.061 309.502 128.541H309.472Z" fill="url(#paint0_linear_2311_385)"/>
<defs>
<linearGradient id="paint0_linear_2311_385" x1="303.502" y1="-29.7452" x2="10.5001" y2="283.757" gradientUnits="userSpaceOnUse">
<stop stop-color="#66FF00"/>
<stop offset="0.587469" stop-color="#2584CA"/>
<stop offset="1" stop-color="#185581"/>
</linearGradient>
</defs>
</svg>
