<svg width="313" height="295" viewBox="0 0 313 295" fill="none" xmlns="http://www.w3.org/2000/svg">
<path d="M309.472 128.531C308.297 130.296 306.702 131.881 304.912 133.076C303.002 134.306 300.967 135.161 298.847 135.571L298.407 135.641C297.827 135.746 297.337 135.801 296.917 135.821L296.862 135.841H296.792C296.352 135.876 295.897 135.896 295.462 135.896C287.607 135.896 280.872 130.441 279.417 122.936L271.072 79.8305L268.232 65.1204L261.272 78.3505L184.016 225.392L183.996 225.447L183.961 225.502C179.961 233.597 171.616 238.872 162.166 239.247C161.781 239.267 161.411 239.282 161.046 239.282C151.736 239.282 143.531 234.577 139.131 226.677L108.046 171.286L103.751 163.656L99.0507 171.036L22.1651 291.667C21.2001 293.182 19.6251 294.057 17.8151 294.057C16.0051 294.057 14.4851 293.202 13.5001 291.702C8.83506 284.607 4.50503 277.282 0.630004 269.917C0.210001 269.132 0 268.257 0 267.387C0 266.352 0.300002 265.357 0.840005 264.497L82.8506 135.876C87.4256 128.711 95.6507 124.236 104.311 124.236C104.521 124.236 104.731 124.256 104.976 124.256C113.936 124.416 122.161 129.231 126.401 136.826L156.366 190.221L161.101 198.616L165.591 190.076L232.587 62.6454L239.652 49.2053L225.872 55.2154L179.916 75.2555C177.796 76.1805 175.551 76.6455 173.216 76.6455C166.781 76.6455 160.891 73.0255 158.241 67.4305C156.436 63.6354 156.241 59.3704 157.696 55.3804C159.206 51.2603 162.431 47.8553 166.531 46.0553L267.807 1.91501L271.227 0.560001C271.492 0.490001 271.752 0.414996 272.032 0.344996L272.102 0.324999C272.172 0.304999 272.262 0.304995 272.332 0.289995H272.702L273.107 0.184999H273.232L273.582 0.129998C273.812 0.0949979 274.022 0.0749975 274.232 0.0749975L274.337 0.054993H274.442C274.792 0.0199928 275.142 0 275.442 0H275.757C275.987 0 276.212 0.0199962 276.477 0.0349963H276.602C277.007 0.0549964 277.392 0.0699999 277.827 0.14L277.897 0.159997H277.987C278.427 0.214998 278.932 0.305002 279.532 0.445003C280.057 0.570004 280.442 0.695 280.827 0.800001L281.022 0.855002L281.322 0.960006C282.987 1.53001 284.512 2.37001 285.882 3.44002L285.952 3.49502L286.042 3.55002C286.427 3.83502 286.847 4.21003 287.357 4.71003C287.672 5.05003 288.007 5.38503 288.372 5.81503C288.582 6.04504 288.827 6.35004 289.092 6.72504L289.302 7.01004L289.337 7.10005L289.407 7.20504L290.722 9.52506L290.987 10.1851C291.182 10.6301 291.302 10.9701 291.427 11.3601C291.587 11.8751 291.727 12.4101 291.812 13.0201L291.832 13.1251L291.852 13.2151L291.872 13.2851L311.897 116.791C312.667 120.891 311.827 125.061 309.497 128.541L309.472 128.531Z" fill="white"/>
</svg>
